<svg width="29" height="30" viewBox="0 0 29 30" fill="none" xmlns="http://www.w3.org/2000/svg">
<g clip-path="url(#clip0)">
<path d="M28.3921 14.6938C28.3921 6.68571 22.1241 0.193848 14.3921 0.193848C6.6601 0.193848 0.39209 6.68571 0.39209 14.6938C0.39209 21.9311 5.51166 27.9299 12.2046 29.0177V18.8853H8.6499V14.6938H12.2046V11.4993C12.2046 7.86525 14.2947 5.85791 17.4926 5.85791C19.0238 5.85791 20.6265 6.14111 20.6265 6.14111V9.70947H18.8612C17.1221 9.70947 16.5796 10.8273 16.5796 11.9751V14.6938H20.4624L19.8417 18.8853H16.5796V29.0177C23.2725 27.9299 28.3921 21.9311 28.3921 14.6938Z" fill="#F67F67"/>
<path d="M19.8417 18.8853L20.4624 14.6938H16.5796V11.9751C16.5796 10.8284 17.1221 9.70947 18.8612 9.70947H20.6265V6.14111C20.6265 6.14111 19.0244 5.85791 17.4926 5.85791C14.2947 5.85791 12.2046 7.86525 12.2046 11.4993V14.6938H8.6499V18.8853H12.2046V29.0177C13.6541 29.2526 15.1301 29.2526 16.5796 29.0177V18.8853H19.8417Z" fill="white"/>
</g>
<defs>
<clipPath id="clip0">
<rect width="28" height="29" fill="white" transform="translate(0.39209 0.193848)"/>
</clipPath>
</defs>
</svg>
