<svg width="30" height="30" viewBox="0 0 30 30" fill="none" xmlns="http://www.w3.org/2000/svg">
<circle cx="14.7676" cy="14.5645" r="14.4531" fill="#C4C4C4"/>
<g clip-path="url(#clip0)">
<path d="M14.9226 7.71523C17.1937 7.71523 17.4626 7.7252 18.3558 7.76504C19.1859 7.80156 19.6341 7.94102 19.933 8.05723C20.3281 8.20996 20.6136 8.3959 20.9091 8.69141C21.208 8.99023 21.3906 9.27246 21.5433 9.66758C21.6595 9.96641 21.799 10.418 21.8355 11.2447C21.8753 12.1412 21.8853 12.4102 21.8853 14.6779C21.8853 16.949 21.8753 17.218 21.8355 18.1111C21.799 18.9412 21.6595 19.3895 21.5433 19.6883C21.3906 20.0834 21.2046 20.3689 20.9091 20.6645C20.6103 20.9633 20.3281 21.1459 19.933 21.2986C19.6341 21.4148 19.1826 21.5543 18.3558 21.5908C17.4593 21.6307 17.1904 21.6406 14.9226 21.6406C12.6515 21.6406 12.3826 21.6307 11.4894 21.5908C10.6593 21.5543 10.2111 21.4148 9.91226 21.2986C9.51714 21.1459 9.23159 20.96 8.93608 20.6645C8.63726 20.3656 8.45464 20.0834 8.3019 19.6883C8.18569 19.3895 8.04624 18.9379 8.00972 18.1111C7.96987 17.2146 7.95991 16.9457 7.95991 14.6779C7.95991 12.4068 7.96987 12.1379 8.00972 11.2447C8.04624 10.4146 8.18569 9.96641 8.3019 9.66758C8.45464 9.27246 8.64058 8.98691 8.93608 8.69141C9.23491 8.39258 9.51714 8.20996 9.91226 8.05723C10.2111 7.94102 10.6626 7.80156 11.4894 7.76504C12.3826 7.7252 12.6515 7.71523 14.9226 7.71523ZM14.9226 6.18457C12.615 6.18457 12.3261 6.19453 11.4197 6.23438C10.5166 6.27422 9.89565 6.42031 9.35776 6.62949C8.79663 6.84863 8.32183 7.1375 7.85034 7.6123C7.37554 8.08379 7.08667 8.55859 6.86753 9.11641C6.65835 9.65762 6.51226 10.2752 6.47241 11.1783C6.43257 12.0881 6.42261 12.377 6.42261 14.6846C6.42261 16.9922 6.43257 17.2811 6.47241 18.1875C6.51226 19.0906 6.65835 19.7115 6.86753 20.2494C7.08667 20.8105 7.37554 21.2854 7.85034 21.7568C8.32183 22.2283 8.79663 22.5205 9.35444 22.7363C9.89565 22.9455 10.5132 23.0916 11.4164 23.1314C12.3228 23.1713 12.6117 23.1812 14.9193 23.1812C17.2269 23.1812 17.5158 23.1713 18.4222 23.1314C19.3253 23.0916 19.9462 22.9455 20.4841 22.7363C21.0419 22.5205 21.5167 22.2283 21.9882 21.7568C22.4597 21.2854 22.7519 20.8105 22.9677 20.2527C23.1769 19.7115 23.323 19.0939 23.3628 18.1908C23.4027 17.2844 23.4126 16.9955 23.4126 14.6879C23.4126 12.3803 23.4027 12.0914 23.3628 11.185C23.323 10.2818 23.1769 9.66094 22.9677 9.12305C22.7585 8.55859 22.4697 8.08379 21.9949 7.6123C21.5234 7.14082 21.0486 6.84863 20.4908 6.63281C19.9496 6.42363 19.332 6.27754 18.4289 6.2377C17.5191 6.19453 17.2302 6.18457 14.9226 6.18457Z" fill="white"/>
<path d="M14.9226 10.3184C12.5121 10.3184 10.5564 12.274 10.5564 14.6846C10.5564 17.0951 12.5121 19.0508 14.9226 19.0508C17.3332 19.0508 19.2888 17.0951 19.2888 14.6846C19.2888 12.274 17.3332 10.3184 14.9226 10.3184ZM14.9226 17.5168C13.3587 17.5168 12.0904 16.2484 12.0904 14.6846C12.0904 13.1207 13.3587 11.8523 14.9226 11.8523C16.4865 11.8523 17.7548 13.1207 17.7548 14.6846C17.7548 16.2484 16.4865 17.5168 14.9226 17.5168Z" fill="white"/>
<path d="M20.4808 10.1458C20.4808 10.7103 20.0226 11.1651 19.4615 11.1651C18.897 11.1651 18.4421 10.7069 18.4421 10.1458C18.4421 9.58135 18.9003 9.12646 19.4615 9.12646C20.0226 9.12646 20.4808 9.58467 20.4808 10.1458Z" fill="white"/>
</g>
<defs>
<clipPath id="clip0">
<rect width="17" height="17" fill="white" transform="translate(6.42261 6.18457)"/>
</clipPath>
</defs>
</svg>
