<svg width="29" height="30" viewBox="0 0 29 30" fill="none" xmlns="http://www.w3.org/2000/svg">
<g clip-path="url(#clip0)">
<path d="M14.9731 29.1938C22.7051 29.1938 28.9731 22.702 28.9731 14.6938C28.9731 6.68572 22.7051 0.193848 14.9731 0.193848C7.24116 0.193848 0.973145 6.68572 0.973145 14.6938C0.973145 22.702 7.24116 29.1938 14.9731 29.1938Z" fill="url(#paint0_linear)"/>
<path fill-rule="evenodd" clip-rule="evenodd" d="M7.31033 14.5407C11.3916 12.699 14.1131 11.4849 15.4748 10.8983C19.3628 9.22338 20.1707 8.93244 20.6972 8.92283C20.813 8.92072 21.072 8.95045 21.2397 9.09141C21.3814 9.21044 21.4203 9.37124 21.439 9.48409C21.4576 9.59695 21.4808 9.85403 21.4624 10.0549C21.2517 12.3477 20.34 17.9117 19.8762 20.4797C19.68 21.5663 19.2936 21.9306 18.9195 21.9662C18.1065 22.0437 17.4891 21.4098 16.7017 20.8752C15.4695 20.0386 14.7734 19.5178 13.5773 18.7015C12.1951 17.7581 13.0911 17.2396 13.8789 16.3922C14.085 16.1704 17.6672 12.7959 17.7365 12.4897C17.7452 12.4514 17.7532 12.3087 17.6714 12.2334C17.5895 12.158 17.4687 12.1838 17.3815 12.2043C17.2579 12.2333 15.2895 13.5809 11.4762 16.2469C10.9175 16.6442 10.4114 16.8378 9.95796 16.8277C9.45809 16.8165 8.49653 16.535 7.78172 16.2943C6.90497 15.9991 6.20814 15.8431 6.26882 15.3418C6.30042 15.0807 6.6476 14.8136 7.31033 14.5407Z" fill="white"/>
</g>
<defs>
<linearGradient id="paint0_linear" x1="14.9731" y1="0.193848" x2="14.9731" y2="28.9788" gradientUnits="userSpaceOnUse">
<stop stop-color="#BCBCBC"/>
<stop offset="1" stop-color="#BCBCBC"/>
</linearGradient>
<clipPath id="clip0">
<rect width="28" height="29" fill="white" transform="translate(0.973145 0.193848)"/>
</clipPath>
</defs>
</svg>
