<svg width="30" height="30" viewBox="0 0 30 30" fill="none" xmlns="http://www.w3.org/2000/svg">
<circle cx="14.5969" cy="14.5645" r="14.4531" fill="#F67F67"/>
<g clip-path="url(#clip0)">
<path d="M23.2384 10.2393C23.1366 9.8776 22.9361 9.54752 22.6568 9.28206C22.3775 9.0166 22.0293 8.82508 21.647 8.72665C20.2397 8.36926 14.6147 8.36926 14.6147 8.36926C14.6147 8.36926 8.98975 8.36926 7.58247 8.72665C7.20019 8.82508 6.85199 9.0166 6.57271 9.28206C6.29343 9.54752 6.09288 9.8776 5.99111 10.2393C5.61475 11.5741 5.61475 14.3579 5.61475 14.3579C5.61475 14.3579 5.61475 17.1416 5.99111 18.4765C6.09288 18.8382 6.29343 19.1683 6.57271 19.4337C6.85199 19.6992 7.20019 19.8907 7.58247 19.9891C8.98975 20.3465 14.6147 20.3465 14.6147 20.3465C14.6147 20.3465 20.2397 20.3465 21.647 19.9891C22.0293 19.8907 22.3775 19.6992 22.6568 19.4337C22.9361 19.1683 23.1366 18.8382 23.2384 18.4765C23.6147 17.1416 23.6147 14.3579 23.6147 14.3579C23.6147 14.3579 23.6147 11.5741 23.2384 10.2393Z" fill="white"/>
<path d="M12.7739 16.8856V11.8301L17.4785 14.3579L12.7739 16.8856Z" fill="#F67F67"/>
</g>
<defs>
<clipPath id="clip0">
<rect width="18" height="17" fill="white" transform="translate(5.59692 5.85791)"/>
</clipPath>
</defs>
</svg>
