<svg width="156" height="97" viewBox="0 0 156 97" fill="none" xmlns="http://www.w3.org/2000/svg">
<path d="M110.606 12.7997C109.224 11.8555 107.253 10.6992 105.409 10.2661C88.2622 6.23394 78.0671 21.5829 76.8327 27.6333C75.5984 33.6837 72.125 40.7431 65.6285 40.7431C54.6712 40.7431 47.0443 30.8685 30.0236 30.8685C13.0072 30.8685 0.1875 40.8904 0.1875 55.2562C0.1875 69.6221 11.7555 78.0935 24.5752 78.0935C37.3949 78.0935 43.1421 72.4935 55.5936 72.4935C62.887 72.4935 83.8099 79.566 90.8088 79.566C97.8076 79.566 103.018 76.9544 104.282 76.4607C105.244 76.0839 106.621 75.4299 107.769 74.8452C108.93 74.2562 110.298 73.3337 111.255 72.4545C134.837 50.843 119.835 20.9376 110.606 12.7997Z" fill="#6112B5"/>
<path d="M16.1992 38.4825C15.3114 38.5605 14.4841 38.9546 13.8648 39.5956C10.0492 43.5281 6.5498 48.1796 6.5498 55.2217C6.5498 60.4795 7.71917 67.1059 15.4759 70.4841C15.6405 70.5577 15.8354 70.5144 15.961 70.3845L16.7666 69.5399C16.8792 69.4187 16.9138 69.2497 16.8532 69.0938C16.3551 67.7945 14.1983 61.415 15.0948 50.7348C15.1208 50.41 15.5452 50.3061 15.7228 50.5789C17.0134 52.6101 20.2703 57.6038 21.2621 59.1239C21.444 59.4054 21.7559 59.5743 22.0893 59.583L23.7524 59.622C24.1076 59.6306 24.4454 59.4487 24.636 59.1499L30.2489 50.2411C30.4308 49.9509 30.8812 50.0809 30.8812 50.423V71.9609C30.8812 72.2858 31.1584 72.5456 31.4832 72.5196C32.6266 72.4287 35.1949 72.0995 37.4253 70.8955C37.9883 70.5923 38.3305 69.999 38.3435 69.358C38.4561 64.6373 38.8675 44.2947 37.8757 36.7371C37.7805 36.0139 37.2001 35.4595 36.4768 35.3815C35.3031 35.2516 33.4322 35.139 31.5915 35.4248C31.1454 35.4941 30.747 35.741 30.4958 36.1135C29.3784 37.7419 26.0565 42.7702 23.4449 48.4654C23.3237 48.7339 22.9425 48.7296 22.8299 48.4611C22.137 46.8023 20.3786 42.5536 19.2049 39.2101C19.0533 38.777 18.6549 38.4825 18.1958 38.4609C17.6588 38.4305 16.9182 38.4175 16.1992 38.4825Z" fill="white"/>
<path d="M53.6273 43.2552C43.4539 42.4324 41.0588 49.9553 41.0588 56.612C41.0588 63.2687 46.308 67.3658 53.6273 67.3658C60.9467 67.3658 65.9923 64.9144 65.9923 58.2534C65.9923 51.5924 60.925 43.8443 53.6273 43.2552ZM53.2375 60.761C49.8897 60.761 47.1742 58.3054 47.1742 55.278C47.1742 52.2507 49.8897 49.795 53.2375 49.795C56.5897 49.795 59.3052 52.2507 59.3052 55.278C59.3052 58.3054 56.5854 60.761 53.2375 60.761Z" fill="white"/>
<path d="M65.3725 47.2353C67.6246 51.7222 70.3532 59.7865 71.0938 68.5004C71.1674 69.3493 71.7694 70.0552 72.5923 70.2761C74.8097 70.8651 79.1537 72.0171 81.8736 72.7101C82.7138 72.9223 83.5973 72.5845 84.0737 71.8569C85.897 69.0677 89.8209 61.5448 92.0557 50.8603C94.3208 40.0416 90.4446 32.3194 95.3862 17.7067C95.4988 17.3732 95.2 17.0441 94.8578 17.1394C92.9435 17.6851 87.9542 19.6557 84.3985 25.9659C84.2556 26.2171 84.1906 26.5029 84.2036 26.7888C84.3292 29.8854 84.8879 48.8291 79.9679 58.0541C79.786 58.3919 79.288 58.3399 79.1797 57.9718C78.3958 55.3082 76.0787 47.8806 73.8223 44.9139C73.5364 44.5371 73.0514 44.3899 72.6053 44.5501C71.6005 44.9182 69.461 45.5462 66.2691 45.6935C65.5025 45.7238 65.0261 46.5424 65.3725 47.2353Z" fill="white"/>
<path d="M101.16 14.9439C100.25 14.7836 99.3623 15.2817 99.0245 16.1392C97.1102 20.9639 95.4427 33.0863 95.655 39.7171C95.8888 46.9931 95.053 67.1581 92.6493 72.7537C92.5843 72.901 92.6839 73.0655 92.8442 73.0699C94.8061 73.1348 105.131 72.914 114.057 61.6708C114.083 61.6404 114.101 61.6058 114.109 61.5668C114.218 61.1597 114.846 58.6694 114.781 56.4736C114.776 56.2874 114.586 56.1574 114.408 56.2181L104.993 59.3407C104.365 59.5486 103.732 59.0375 103.806 58.3792L104.33 53.6195C104.369 53.2687 104.607 52.9742 104.941 52.8616L117.951 48.4743C118.354 48.34 118.657 48.0109 118.761 47.5994C119.012 46.5903 119.358 44.5461 118.817 42.2853C118.691 41.7656 118.241 41.3888 117.708 41.3455L105.14 40.332C104.659 40.2931 104.291 39.886 104.308 39.4009L104.486 33.2119C104.503 32.6706 104.98 32.2634 105.517 32.3414C107.647 32.6446 112.632 33.3505 115.027 33.723C115.764 33.8356 116.426 33.2812 116.444 32.5363C116.496 30.3708 115.794 25.819 110.45 19.8162C107.466 16.4684 103.325 15.325 101.16 14.9439Z" fill="white"/>
<path d="M137.462 7.71533C127.769 7.71533 121.507 12.7003 121.507 20.4137C121.507 26.3255 128.826 31.1372 137.822 31.1372C146.657 31.1372 155.007 25.3597 155.007 19.2444C155.011 13.3196 146.484 7.71533 137.462 7.71533Z" fill="#6112B5"/>
<path d="M142.477 32.8435C138.986 32.8435 136.249 35.8102 136.249 39.5955C136.249 43.1079 139.125 45.8581 142.793 45.8581C146.34 45.8581 149.337 42.7484 149.337 39.0671C149.333 35.637 146.258 32.8435 142.477 32.8435Z" fill="#6112B5"/>
<path d="M137.57 47.5646C134.357 47.5646 131.741 50.1805 131.741 53.3941C131.741 56.6076 134.357 59.2236 137.57 59.2236C140.979 59.2236 143.361 57.0624 143.361 53.9701C143.361 50.9427 140.983 47.5646 137.57 47.5646Z" fill="#6112B5"/>
<path d="M130.502 69.9386C133.377 69.9386 135.708 67.6079 135.708 64.7328C135.708 61.8577 133.377 59.527 130.502 59.527C127.627 59.527 125.296 61.8577 125.296 64.7328C125.296 67.6079 127.627 69.9386 130.502 69.9386Z" fill="#6112B5"/>
<path d="M120.628 67.7904C118.12 67.7904 116.08 69.8303 116.08 72.3379C116.08 74.8456 118.12 76.8854 120.628 76.8854C123.135 76.8854 125.175 74.8456 125.175 72.3379C125.175 69.8303 123.135 67.7904 120.628 67.7904Z" fill="#6112B5"/>
<path d="M84.0655 5.69688C84.7497 6.04336 84.9013 6.9572 84.3513 7.48991C77.3005 14.3069 72.099 25.5198 69.4657 33.8699C68.3094 37.5252 60.977 35.8881 59.3053 34.3506C57.8327 32.995 56.1653 19.7076 55.7885 16.5503C55.7625 16.3511 55.494 16.3034 55.4031 16.4853L48.768 29.5822C48.6121 29.8897 48.257 30.037 47.9278 29.9287C46.2474 29.3657 41.3101 27.7156 39.4521 27.1352C38.6335 26.8797 51.1024 6.44614 53.9046 1.8683C54.238 1.32693 54.879 1.06274 55.494 1.21433C57.4863 1.70373 61.7046 2.80812 62.233 3.46643C62.861 4.25467 64.2686 20.08 64.5198 22.9385C64.5284 23.0468 64.6757 23.0684 64.7147 22.9688C65.6848 20.4525 70.8863 7.19973 73.4113 5.19882C75.5464 3.50541 81.6358 4.46256 84.0655 5.69688Z" fill="#F67F67"/>
<path d="M36.7969 25.8188L45.3376 4.20288C45.5542 3.66151 45.3203 3.03785 44.7962 2.77799C42.7823 1.77754 37.5592 -0.292667 30.4954 0.816062C29.9886 0.89402 29.6075 1.32279 29.5599 1.83384L27.5373 25.2991C27.4767 25.9963 28.057 26.581 28.7543 26.5204C30.3958 26.3818 33.2499 26.2259 35.6146 26.5204C36.1213 26.5854 36.6064 26.2952 36.7969 25.8188Z" fill="#F67F67"/>
<path d="M28.2694 94.989C28.0182 94.6815 27.8926 94.4043 27.8926 94.1574C27.8926 93.9106 28.1005 93.5857 28.5119 93.183C28.7501 92.9534 29.0056 92.8365 29.2785 92.8365C29.5513 92.8365 29.9238 93.079 30.4045 93.5598C30.5388 93.7243 30.7294 93.8803 30.9806 94.0275C31.2318 94.1748 31.4613 94.2527 31.6735 94.2527C32.57 94.2527 33.0161 93.8889 33.0161 93.157C33.0161 92.9361 32.8949 92.7499 32.648 92.6026C32.4011 92.4554 32.098 92.3471 31.7298 92.2778C31.366 92.2085 30.9676 92.1002 30.5475 91.953C30.123 91.8057 29.7289 91.6281 29.3651 91.4246C29.0013 91.221 28.6938 90.9005 28.4469 90.4631C28.2001 90.0257 28.0788 89.4973 28.0788 88.8823C28.0788 88.0334 28.395 87.2972 29.023 86.6649C29.651 86.0325 30.5128 85.7207 31.5999 85.7207C32.1759 85.7207 32.7043 85.7943 33.1807 85.9459C33.6571 86.0932 33.9863 86.2491 34.1682 86.4007L34.5276 86.6735C34.8265 86.9507 34.9737 87.1889 34.9737 87.3795C34.9737 87.57 34.8568 87.8385 34.6272 88.172C34.3024 88.6528 33.9646 88.8953 33.6181 88.8953C33.4146 88.8953 33.1677 88.8 32.8689 88.6051C32.8385 88.5878 32.7866 88.5358 32.7043 88.4622C32.622 88.3843 32.5484 88.3236 32.4791 88.276C32.2755 88.1504 32.02 88.0897 31.7082 88.0897C31.3963 88.0897 31.1365 88.1634 30.9286 88.315C30.7207 88.4622 30.6168 88.6701 30.6168 88.9343C30.6168 89.1985 30.738 89.415 30.9849 89.5753C31.2318 89.7398 31.5349 89.8481 31.9031 89.9088C32.2669 89.9651 32.6696 90.056 33.1027 90.1773C33.5358 90.2985 33.9343 90.4458 34.3024 90.619C34.6662 90.7923 34.9737 91.0911 35.2206 91.5199C35.4674 91.9486 35.5887 92.477 35.5887 93.1007C35.5887 93.7243 35.4631 94.2787 35.2119 94.7551C34.9607 95.2315 34.6359 95.5996 34.2288 95.8595C33.4492 96.3706 32.6177 96.6261 31.7298 96.6261C31.2794 96.6261 30.8506 96.5698 30.4435 96.4615C30.0407 96.3532 29.7116 96.2146 29.4604 96.0501C28.9493 95.7426 28.5942 95.4437 28.3906 95.1536L28.2694 94.989Z" fill="#6112B5"/>
<path d="M43.2243 91.1646C44.6968 92.5808 45.7406 93.6419 46.3556 94.3565C46.6717 94.7116 46.832 95.0148 46.832 95.2573C46.832 95.4999 46.6371 95.79 46.256 96.1235C45.8705 96.457 45.5544 96.6216 45.3118 96.6216C45.0693 96.6216 44.7704 96.418 44.424 96.0152L41.2494 92.3902V95.2054C41.2494 95.4349 41.2407 95.6038 41.2277 95.7121C41.2147 95.8204 41.1671 95.9416 41.0891 96.0889C40.9549 96.3487 40.5781 96.4787 39.9631 96.4787C39.2874 96.4787 38.8933 96.2968 38.7807 95.9286C38.7244 95.777 38.6941 95.5302 38.6941 95.1924V87.1671C38.6941 86.9462 38.7028 86.7816 38.7157 86.669C38.7287 86.5564 38.7764 86.4308 38.8543 86.2879C38.9886 86.028 39.3654 85.8981 39.9804 85.8981C40.656 85.8981 41.0545 86.0757 41.1801 86.4308C41.2277 86.5954 41.2537 86.8466 41.2537 87.1801V89.9389C42.5616 88.4664 43.6184 87.258 44.4283 86.3182C44.7661 85.9241 45.0606 85.7249 45.3075 85.7249C45.5544 85.7249 45.8748 85.8894 46.2603 86.2229C46.6458 86.5564 46.8363 86.8422 46.8363 87.0891C46.8363 87.336 46.6934 87.6262 46.4032 87.964C45.8445 88.6093 44.9783 89.4928 43.8046 90.6189L43.2243 91.1646Z" fill="#6112B5"/>
<path d="M55.9704 86.6475L59.8682 94.7031C60.0328 95.0322 60.1151 95.2748 60.1151 95.4393C60.1151 95.7858 59.8379 96.0976 59.2792 96.3791C58.9501 96.5437 58.6945 96.626 58.5083 96.626C58.3221 96.626 58.1662 96.5827 58.0449 96.4961C57.9236 96.4095 57.837 96.3185 57.785 96.2232C57.7331 96.128 57.6594 95.9807 57.5598 95.7901L56.8106 94.231H52.8131L52.0638 95.7901C51.9685 95.9807 51.8949 96.1236 51.8386 96.2102C51.7866 96.2969 51.7 96.3878 51.5788 96.4788C51.4575 96.5697 51.3059 96.6173 51.1153 96.6173C50.9248 96.6173 50.6692 96.5351 50.3444 96.3705C49.7857 96.102 49.5085 95.7945 49.5085 95.448C49.5085 95.2834 49.5908 95.0409 49.7554 94.7117L53.6533 86.6431C53.7572 86.4222 53.9218 86.2447 54.1384 86.1104C54.3549 85.9761 54.5844 85.9069 54.8227 85.9069C55.3337 85.8939 55.7192 86.1451 55.9704 86.6475ZM54.801 90.1079L53.8482 92.0872H55.7668L54.801 90.1079Z" fill="#6112B5"/>
<path d="M61.0635 85.8807H69.0888C69.3963 85.8807 69.6215 85.9154 69.7688 85.989C69.9117 86.0626 70.007 86.1752 70.059 86.3268C70.1109 86.4784 70.1326 86.682 70.1326 86.9332C70.1326 87.1844 70.1066 87.3836 70.059 87.5308C70.0113 87.6781 69.929 87.782 69.8121 87.8427C69.6389 87.9293 69.392 87.9726 69.0758 87.9726H66.317V95.2313C66.317 95.4522 66.3083 95.6168 66.2953 95.7207C66.2824 95.829 66.239 95.9503 66.1654 96.0888C66.0918 96.2274 65.9662 96.327 65.7843 96.3833C65.6024 96.4397 65.3599 96.47 65.061 96.47C64.7622 96.47 64.524 96.4397 64.3464 96.3833C64.1688 96.327 64.0432 96.2274 63.9696 96.0888C63.896 95.9503 63.8527 95.8247 63.8397 95.712C63.8267 95.6038 63.818 95.4349 63.818 95.214V87.9683H61.0462C60.7387 87.9683 60.5135 87.9336 60.3662 87.86C60.2233 87.7864 60.1237 87.6738 60.0761 87.5222C60.0284 87.3706 60.0024 87.167 60.0024 86.9158C60.0024 86.6646 60.0241 86.4654 60.0761 86.3182C60.1237 86.1709 60.206 86.067 60.3229 86.0063C60.5005 85.924 60.7474 85.8807 61.0635 85.8807Z" fill="#6112B5"/>
<path d="M75.6415 93.9188H80.085C80.3059 93.9188 80.4705 93.9274 80.5831 93.9404C80.6914 93.9534 80.8213 94.0011 80.9642 94.079C81.2241 94.2133 81.354 94.5901 81.354 95.2051C81.354 95.8807 81.1764 96.2748 80.8213 96.3874C80.6567 96.4437 80.4055 96.4741 80.072 96.4741H74.3552C73.6795 96.4741 73.2854 96.2922 73.1728 95.924C73.1165 95.7724 73.0862 95.5256 73.0862 95.1878V87.1625C73.0862 86.6731 73.1771 86.3396 73.359 86.1577C73.5409 85.9801 73.8874 85.8892 74.3985 85.8892H80.085C80.3059 85.8892 80.4705 85.8978 80.5831 85.9108C80.6914 85.9238 80.8213 85.9714 80.9642 86.0494C81.2241 86.1837 81.354 86.5605 81.354 87.1755C81.354 87.8511 81.1764 88.2452 80.8213 88.3578C80.6567 88.4141 80.4055 88.4444 80.072 88.4444H75.6415V89.904H78.4999C78.7208 89.904 78.8854 89.9126 78.998 89.9256C79.1062 89.9386 79.2362 89.9863 79.3791 90.0642C79.6389 90.1985 79.7689 90.5753 79.7689 91.1903C79.7689 91.8616 79.587 92.26 79.2188 92.3726C79.0543 92.4289 78.8031 92.4592 78.4696 92.4592H75.6415V93.9188Z" fill="#6112B5"/>
<path d="M84.6197 94.9886C84.3685 94.6811 84.2429 94.4039 84.2429 94.1571C84.2429 93.9102 84.4508 93.5854 84.8622 93.1826C85.1004 92.9531 85.356 92.8361 85.6288 92.8361C85.9017 92.8361 86.2741 93.0787 86.7549 93.5594C86.8891 93.724 87.0797 93.8799 87.3309 94.0271C87.5821 94.1744 87.8116 94.2524 88.0239 94.2524C88.9204 94.2524 89.3665 93.8886 89.3665 93.1566C89.3665 92.9357 89.2452 92.7495 88.9983 92.6023C88.7515 92.455 88.4483 92.3467 88.0802 92.2774C87.7164 92.2081 87.3179 92.0999 86.8978 91.9526C86.4734 91.8054 86.0793 91.6278 85.7154 91.4242C85.3516 91.2207 85.0441 90.9002 84.7973 90.4628C84.5504 90.0253 84.4291 89.4969 84.4291 88.8819C84.4291 88.0331 84.7453 87.2968 85.3733 86.6645C86.0013 86.0322 86.8632 85.7203 87.9502 85.7203C88.5263 85.7203 89.0546 85.794 89.531 85.9455C90.0074 86.0928 90.3366 86.2487 90.5185 86.4003L90.878 86.6731C91.1768 86.9503 91.3241 87.1885 91.3241 87.3791C91.3241 87.5697 91.2071 87.8382 90.9776 88.1717C90.6528 88.6524 90.3149 88.8949 89.9685 88.8949C89.7649 88.8949 89.518 88.7997 89.2192 88.6048C89.1889 88.5874 89.1369 88.5355 89.0546 88.4618C88.9723 88.3839 88.8987 88.3232 88.8294 88.2756C88.6259 88.15 88.3703 88.0894 88.0585 88.0894C87.7467 88.0894 87.4868 88.163 87.2789 88.3146C87.071 88.4618 86.9671 88.6697 86.9671 88.9339C86.9671 89.1981 87.0884 89.4147 87.3352 89.5749C87.5821 89.7395 87.8853 89.8478 88.2534 89.9084C88.6172 89.9647 89.02 90.0556 89.4531 90.1769C89.8862 90.2982 90.2846 90.4454 90.6528 90.6187C91.0166 90.7919 91.3241 91.0907 91.5709 91.5195C91.8178 91.9483 91.9391 92.4767 91.9391 93.1003C91.9391 93.724 91.8135 94.2783 91.5623 94.7547C91.3111 95.2312 90.9862 95.5993 90.5791 95.8591C89.7996 96.3702 88.968 96.6257 88.0802 96.6257C87.6297 96.6257 87.201 96.5694 86.7939 96.4612C86.3911 96.3529 86.0619 96.2143 85.8107 96.0497C85.2997 95.7422 84.9445 95.4434 84.741 95.1532L84.6197 94.9886Z" fill="#6112B5"/>
</svg>
