<svg width="0" height="0" class="hidden">
  <!-- Header burger -->
  <symbol fill="none" xmlns="http://www.w3.org/2000/svg" viewBox="0 0 24 21" id="burger-header">
    <rect x=".5" y=".731" width="11.708" height="3.574" rx="1.787" fill="#7B7B7B"></rect>
    <rect x="12.182" y="16.492" width="11.708" height="3.574" rx="1.787" fill="#7B7B7B"></rect>
    <rect x=".5" y="8.674" width="23.39" height="3.449" rx="1.725" fill="#7B7B7B"></rect>
  </symbol>

  <!-- Header logo -->
  <symbol fill="none" xmlns="http://www.w3.org/2000/svg" viewBox="0 0 98 61" id="logo-header">
    <path d="M69.62 8.46c-.863-.59-2.094-1.313-3.246-1.583-10.711-2.519-17.08 7.07-17.851 10.85-.772 3.779-2.941 8.189-7 8.189-6.845 0-11.61-6.169-22.242-6.169-10.63 0-18.639 6.26-18.639 15.235 0 8.974 7.227 14.267 15.235 14.267 8.009 0 11.599-3.499 19.378-3.499 4.556 0 17.626 4.419 21.998 4.419 4.373 0 7.627-1.632 8.417-1.94.601-.236 1.461-.644 2.178-1.01.725-.367 1.58-.944 2.178-1.493 14.732-13.5 5.36-32.183-.406-37.266z" fill="#6112B5"></path>
    <path d="M10.645 24.504a2.306 2.306 0 00-1.458.695c-2.384 2.457-4.57 5.362-4.57 9.762 0 3.284.73 7.424 5.576 9.534a.27.27 0 00.303-.062l.503-.528a.264.264 0 00.054-.279c-.31-.811-1.658-4.796-1.098-11.468.016-.203.281-.268.392-.098.807 1.27 2.841 4.389 3.46 5.338a.633.633 0 00.518.287l1.038.024a.64.64 0 00.552-.295l3.507-5.565c.113-.181.395-.1.395.114v13.455a.35.35 0 00.376.349c.714-.057 2.319-.263 3.712-1.015.352-.19.565-.56.573-.96.07-2.95.328-15.658-.292-20.379a.983.983 0 00-.874-.846c-.733-.082-1.902-.152-3.052.026a1.01 1.01 0 00-.684.43c-.698 1.018-2.773 4.16-4.405 7.717a.21.21 0 01-.384-.003c-.433-1.036-1.531-3.69-2.264-5.779a.7.7 0 00-.63-.468 8.885 8.885 0 00-1.248.014zm23.381 2.981c-6.355-.514-7.851 4.186-7.851 8.344 0 4.158 3.279 6.718 7.851 6.718s7.724-1.531 7.724-5.692c0-4.162-3.165-9.002-7.724-9.37zm-.243 10.936c-2.092 0-3.788-1.534-3.788-3.425 0-1.891 1.696-3.426 3.788-3.426 2.094 0 3.79 1.535 3.79 3.426 0 1.89-1.699 3.425-3.79 3.425zm7.581-8.45c1.407 2.803 3.111 7.841 3.574 13.285.046.53.422.971.936 1.109a674.78 674.78 0 005.798 1.52 1.269 1.269 0 001.374-.532c1.14-1.743 3.59-6.442 4.986-13.117 1.416-6.758-1.006-11.582 2.081-20.711a.273.273 0 00-.33-.354c-1.196.34-4.313 1.572-6.534 5.514a.951.951 0 00-.122.514c.079 1.934.428 13.768-2.646 19.531a.267.267 0 01-.492-.051c-.49-1.664-1.937-6.304-3.347-8.158a.665.665 0 00-.76-.227c-.628.23-1.964.622-3.958.714a.663.663 0 00-.56.963zM63.72 9.799a1.205 1.205 0 00-1.334.747c-1.196 3.014-2.238 10.587-2.105 14.729.146 4.545-.376 17.142-1.878 20.638a.139.139 0 00.122.197c1.226.04 7.676-.097 13.252-7.12a.147.147 0 00.032-.066c.068-.254.46-1.81.42-3.181a.176.176 0 00-.233-.16l-5.882 1.95a.566.566 0 01-.741-.6l.327-2.974a.565.565 0 01.382-.473l8.127-2.74a.774.774 0 00.506-.547c.157-.63.373-1.908.035-3.32a.775.775 0 00-.692-.587l-7.852-.633a.564.564 0 01-.52-.582l.111-3.866a.563.563 0 01.644-.544c1.331.19 4.446.63 5.942.863.46.07.874-.276.885-.741.032-1.353-.406-4.197-3.745-7.946-1.864-2.092-4.45-2.806-5.803-3.044z" fill="#fff"></path>
    <path d="M86.398 5.283c-6.055 0-9.968 3.114-9.968 7.933 0 3.693 4.573 6.699 10.192 6.699 5.52 0 10.736-3.61 10.736-7.43.003-3.7-5.325-7.202-10.96-7.202zm3.132 15.698c-2.18 0-3.89 1.853-3.89 4.218 0 2.194 1.797 3.912 4.088 3.912 2.216 0 4.088-1.942 4.088-4.242-.002-2.143-1.923-3.888-4.285-3.888zm-3.065 9.196a3.646 3.646 0 00-3.642 3.642 3.646 3.646 0 003.642 3.642c2.13 0 3.617-1.35 3.617-3.282 0-1.892-1.485-4.002-3.617-4.002zM82.05 44.154a3.252 3.252 0 100-6.504 3.252 3.252 0 000 6.504zm-6.169-1.342a2.844 2.844 0 00-2.84 2.84 2.844 2.844 0 002.84 2.842 2.844 2.844 0 002.84-2.841 2.844 2.844 0 00-2.84-2.841z" fill="#6112B5"></path>
    <path d="M53.04 4.023a.696.696 0 01.18 1.12c-4.405 4.258-7.654 11.263-9.3 16.48-.722 2.283-5.302 1.26-6.347.3-.92-.847-1.961-9.148-2.197-11.12-.016-.125-.184-.155-.24-.04l-4.145 8.18a.435.435 0 01-.525.217 423.516 423.516 0 00-5.295-1.745c-.511-.16 7.278-12.924 9.029-15.784a.91.91 0 01.992-.409c1.245.306 3.88.996 4.21 1.407.393.493 1.272 10.379 1.429 12.164.005.068.097.082.121.02.607-1.573 3.856-9.852 5.433-11.102 1.334-1.057 5.138-.46 6.656.312zm-29.528 12.57l5.336-13.504a.703.703 0 00-.338-.89C27.25 1.574 23.987.281 19.575.973a.705.705 0 00-.585.636l-1.263 14.659c-.038.435.324.8.76.763 1.026-.087 2.808-.184 4.286 0a.7.7 0 00.738-.438z" fill="#F67F67"></path>
    <path d="M18.185 59.803c-.157-.192-.235-.365-.235-.52 0-.154.13-.357.387-.608.148-.144.308-.217.479-.217.17 0 .403.152.703.452.084.103.203.2.36.292.157.092.3.141.433.141.56 0 .838-.227.838-.685 0-.138-.075-.254-.23-.346a1.739 1.739 0 00-.573-.203 5.206 5.206 0 01-1.477-.533 1.52 1.52 0 01-.574-.6c-.154-.274-.23-.604-.23-.988 0-.53.198-.99.59-1.385.392-.395.93-.59 1.61-.59.36 0 .69.046.987.14.298.093.503.19.617.285l.225.17c.186.173.278.322.278.441 0 .12-.073.287-.216.495-.203.3-.414.452-.63.452-.128 0-.282-.06-.469-.181-.019-.01-.051-.043-.102-.09a1.178 1.178 0 00-.141-.116.901.901 0 00-.482-.116.804.804 0 00-.487.14.448.448 0 00-.195.388c0 .165.076.3.23.4.155.103.344.17.574.208.227.035.479.092.75.168.27.076.519.168.749.276.227.108.42.295.573.563.155.268.23.598.23.987 0 .39-.078.736-.235 1.034-.157.298-.36.527-.614.69a2.795 2.795 0 01-1.561.479c-.282 0-.55-.035-.804-.103a2.139 2.139 0 01-.614-.257c-.32-.192-.541-.379-.668-.56l-.076-.103zm9.342-2.389c.92.885 1.572 1.547 1.956 1.994.198.222.298.411.298.563 0 .151-.122.333-.36.54-.24.21-.438.312-.59.312-.151 0-.338-.127-.554-.379l-1.983-2.264v1.758c0 .144-.006.25-.014.317a.703.703 0 01-.087.235c-.083.163-.319.244-.703.244-.422 0-.668-.114-.739-.344-.035-.095-.054-.249-.054-.46v-5.013c0-.138.006-.241.014-.311a.675.675 0 01.086-.239c.084-.162.32-.243.704-.243.422 0 .67.11.75.333.029.103.045.26.045.468v1.723c.817-.92 1.477-1.675 1.983-2.262.212-.246.395-.37.55-.37.154 0 .354.103.595.31.24.21.36.388.36.542 0 .154-.09.335-.27.546-.35.404-.891.956-1.624 1.659l-.363.34zm7.963-2.822l2.435 5.032c.103.206.154.358.154.46 0 .217-.173.412-.522.587-.206.103-.365.155-.482.155a.488.488 0 01-.29-.081.53.53 0 01-.162-.17l-.14-.272-.468-.973h-2.498l-.468.974a3.09 3.09 0 01-.14.262.621.621 0 01-.163.168.467.467 0 01-.29.086c-.118 0-.278-.051-.48-.154-.35-.168-.523-.36-.523-.576 0-.103.052-.255.154-.46l2.435-5.04a.78.78 0 01.303-.333.802.802 0 01.428-.128c.32-.008.56.15.717.463zm-.73 2.162l-.596 1.236h1.199l-.604-1.236zm3.912-2.641h5.013c.192 0 .333.022.425.068.09.046.149.116.181.21.033.096.046.223.046.38s-.016.281-.046.373a.317.317 0 01-.154.195c-.108.054-.263.08-.46.08h-1.724v4.535c0 .138-.005.241-.013.306a.676.676 0 01-.081.23.382.382 0 01-.238.184 1.57 1.57 0 01-.452.054c-.187 0-.336-.019-.447-.054a.384.384 0 01-.235-.184.678.678 0 01-.081-.235 2.824 2.824 0 01-.014-.311v-4.527h-1.731c-.192 0-.333-.021-.425-.067a.35.35 0 01-.181-.211 1.299 1.299 0 01-.046-.38c0-.156.013-.28.046-.373a.317.317 0 01.154-.194c.11-.052.265-.079.463-.079zm9.106 5.022h2.776c.138 0 .241.005.311.013a.694.694 0 01.238.087c.163.084.244.319.244.703 0 .422-.11.668-.333.739a1.54 1.54 0 01-.468.054h-3.571c-.422 0-.668-.114-.739-.344-.035-.094-.054-.249-.054-.46v-5.013c0-.306.057-.514.17-.628.114-.11.33-.168.65-.168h3.552c.138 0 .241.006.311.014a.694.694 0 01.238.087c.163.084.244.319.244.703 0 .422-.11.668-.333.739a1.54 1.54 0 01-.468.054h-2.768v.912h1.786c.138 0 .24.005.311.013a.695.695 0 01.238.087c.163.084.244.319.244.703 0 .42-.114.668-.344.739a1.54 1.54 0 01-.468.054h-1.767v.912zm5.609.668c-.157-.192-.235-.365-.235-.52 0-.154.13-.357.386-.608.15-.144.309-.217.48-.217.17 0 .402.152.703.452.084.103.203.2.36.292.157.092.3.141.433.141.56 0 .838-.227.838-.685 0-.138-.075-.254-.23-.346a1.739 1.739 0 00-.573-.203 5.21 5.21 0 01-1.477-.533 1.52 1.52 0 01-.574-.6c-.154-.274-.23-.604-.23-.988 0-.53.197-.99.59-1.385.392-.395.93-.59 1.61-.59.36 0 .69.046.987.14.298.093.503.19.617.285l.224.17c.187.173.28.322.28.441 0 .12-.074.287-.217.495-.203.3-.414.452-.63.452-.128 0-.282-.06-.469-.181-.019-.01-.051-.043-.102-.09a1.178 1.178 0 00-.141-.116.901.901 0 00-.482-.116.804.804 0 00-.487.14.448.448 0 00-.195.388c0 .165.076.3.23.4.155.103.344.17.574.208.227.035.479.092.75.168.27.076.519.168.749.276.227.108.42.295.573.563.155.268.23.598.23.987 0 .39-.078.736-.235 1.034-.157.298-.36.527-.614.69a2.795 2.795 0 01-1.561.479c-.282 0-.55-.035-.804-.103a2.139 2.139 0 01-.614-.257c-.32-.192-.541-.379-.668-.56l-.076-.103z" fill="#6112B5"></path>
  </symbol>

  <!-- Header search icon -->
  <symbol fill="none" xmlns="http://www.w3.org/2000/svg" viewBox="0 0 13 14" id="search-header">
    <circle cx="5.87" cy="5.864" r="4.739" stroke-linecap="round"></circle>
    <path d="M9.013 9.896l2.808 2.808" stroke-linecap="round"></path>
  </symbol>

  <!-- Header profile icon -->
  <symbol fill="none" xmlns="http://www.w3.org/2000/svg" viewBox="0 0 25 25" id="profile-header">
    <path clip-rule="evenodd" d="M12.033 15.55c-3.868 0-7.17.585-7.17 2.927s3.281 2.948 7.17 2.948c3.867 0 7.17-.586 7.17-2.927s-3.281-2.948-7.17-2.948z" stroke-width="1.5" stroke-linecap="round" stroke-linejoin="round"></path>
    <path clip-rule="evenodd" d="M12.033 12.21a4.596 4.596 0 10-4.596-4.596A4.58 4.58 0 0012 12.21h.032z" stroke-width="1.429" stroke-linecap="round" stroke-linejoin="round"></path>
  </symbol>

  <!-- Header cart icon -->
  <symbol fill="none" xmlns="http://www.w3.org/2000/svg" viewBox="0 0 25 25" id="cart-header">
    <path d="M16.698 9.51V6.476a3.772 3.772 0 00-3.772-3.773 3.773 3.773 0 00-3.79 3.756V9.51" stroke-width="1.5" stroke-linecap="round" stroke-linejoin="round"></path>
    <path clip-rule="evenodd" d="M17.668 21.204H8.183a4.256 4.256 0 01-4.258-4.255v-5.516a4.256 4.256 0 014.258-4.255h9.485a4.256 4.256 0 014.257 4.256v5.516a4.256 4.256 0 01-4.257 4.255z" stroke-width="1.5" stroke-linecap="round" stroke-linejoin="round"></path>
  </symbol>

  <!-- Header menu Google icon -->
  <symbol fill="none" xmlns="http://www.w3.org/2000/svg" viewBox="0 0 22 20" id="menu-google">
    <g clip-path="url(#clip0)">
      <path d="M21.312 10.484c0-.645-.058-1.295-.181-1.93h-9.904v3.658H16.9c-.236 1.18-.992 2.224-2.1 2.887v2.374h3.384c1.987-1.655 3.13-4.098 3.13-6.989z" fill="#4285F4"></path>
      <path d="M11.227 19.766c2.832 0 5.22-.841 6.96-2.293l-3.384-2.374c-.941.58-2.156.908-3.572.908-2.74 0-5.062-1.672-5.896-3.92H1.844v2.447c1.782 3.208 5.413 5.232 9.383 5.232z" fill="#34A853"></path>
      <path d="M5.332 12.087a5.178 5.178 0 010-3.638V6.002H1.844a8.704 8.704 0 000 8.532l3.488-2.447z" fill="#FBBC04"></path>
      <path d="M11.227 4.526c1.497-.021 2.944.488 4.028 1.424l2.998-2.712c-1.899-1.613-4.418-2.5-7.026-2.472-3.97 0-7.6 2.025-9.383 5.236L5.332 8.45c.829-2.251 3.156-3.923 5.895-3.923z" fill="#EA4335"></path>
    </g>
    <defs>
      <clipPath id="clip0">
        <path fill="#fff" transform="translate(.517 .766)" d="M0 0h21v19H0z"></path>
      </clipPath>
    </defs>
  </symbol>
</svg>