<svg width="18" height="19" viewBox="0 0 18 19" fill="none" xmlns="http://www.w3.org/2000/svg">
<circle cx="8.17775" cy="8.16859" r="6.86061" stroke="#7B7B7B" stroke-width="1.5" stroke-linecap="round"/>
<path d="M12.7439 14.0263L16.8227 18.1051" stroke="#7B7B7B" stroke-width="1.5" stroke-linecap="round"/>
<path d="M8.67773 4.86658C8.67773 4.59043 8.45388 4.36658 8.17773 4.36658C7.90159 4.36658 7.67773 4.59043 7.67773 4.86658H8.67773ZM7.67773 11.4711C7.67773 11.7472 7.90159 11.9711 8.17773 11.9711C8.45388 11.9711 8.67773 11.7472 8.67773 11.4711H7.67773ZM7.67773 4.86658V11.4711H8.67773V4.86658H7.67773Z" fill="#7B7B7B"/>
<path d="M11.48 8.66833C11.7561 8.66833 11.98 8.44448 11.98 8.16833C11.98 7.89219 11.7561 7.66833 11.48 7.66833L11.48 8.66833ZM4.87549 7.66833C4.59935 7.66833 4.37549 7.89219 4.37549 8.16833C4.37549 8.44448 4.59935 8.66833 4.87549 8.66833L4.87549 7.66833ZM11.48 7.66833L4.87549 7.66833L4.87549 8.66833L11.48 8.66833L11.48 7.66833Z" fill="#7B7B7B"/>
</svg>
